<svg width="80" height="87" viewBox="0 0 80 87" fill="none" xmlns="http://www.w3.org/2000/svg">
<rect x="0.5" y="0.5" width="79" height="86" rx="11.5" fill="#275BEB" stroke="#D9D9D9"/>
<circle cx="36.5444" cy="27.5" r="14" stroke="white" stroke-width="3"/>
<path d="M17.0357 71.231C17.0357 65.6014 16.6191 56.7677 18.6319 52.5643C21.4251 46.7311 53.0117 46.2312 55.3402 52.5644C56.9334 56.8976 56.4112 65.6014 56.54 71.231" stroke="white" stroke-width="3"/>
<path d="M51.0444 15C52.8625 15.4615 56.4987 16.3846 58.7713 18.6923C60.4101 20.3564 61.4984 21.9231 61.953 25.6154C62.4075 29.3077 61.0439 32.0769 60.5894 33C60.1829 33.8256 56.9532 38.0769 54.2261 39" stroke="white" stroke-width="3"/>
<path d="M68.5444 71C68.5444 64 68.8463 53.4528 67.5444 51.5C66.5444 50 66.5444 49 62.0444 47.5" stroke="white" stroke-width="3"/>
</svg>
