<svg width="19" height="23" viewBox="0 0 19 23" fill="none" xmlns="http://www.w3.org/2000/svg">
<path d="M9.02759 5C10.577 5 12.0276 6.45302 12.0276 8.5C12.0276 10.547 10.577 12 9.02759 12C7.47821 12 6.02759 10.547 6.02759 8.5C6.02759 6.45302 7.47821 5 9.02759 5Z" stroke="#757575" stroke-width="2"/>
<path d="M12.3606 1L12.6272 1.2002L14.6272 2.7002L14.7415 2.78613L14.8274 2.90039L16.3274 4.90039L16.4739 5.09473L16.5139 5.33594L17.0413 8.5L16.4827 11.8516L16.385 12.0146L14.8586 14.5586L14.8274 14.5996L13.3274 16.5996L13.2854 16.6572L13.2346 16.707L9.02759 20.9141L4.77075 16.6572L4.72778 16.5996L3.22778 14.5996L3.19653 14.5586L1.67017 12.0146L1.57251 11.8516L1.01392 8.5L1.54126 5.33594L1.5813 5.09473L1.72778 4.90039L3.22778 2.90039L3.34497 2.74316L3.51294 2.64258L6.01294 1.14258L6.25024 1H12.3606Z" stroke="#757575" stroke-width="2"/>
<path d="M12.3606 1L12.6272 1.2002L14.6272 2.7002L14.7415 2.78613L14.8274 2.90039L16.3274 4.90039L16.4739 5.09473L16.5139 5.33594L17.0413 8.5L16.4827 11.8516L16.385 12.0146L14.8586 14.5586L14.8274 14.5996L13.3274 16.5996L13.2854 16.6572L13.2346 16.707L9.02759 20.9141L4.77075 16.6572L4.72778 16.5996L3.22778 14.5996L3.19653 14.5586L1.67017 12.0146L1.57251 11.8516L1.01392 8.5L1.54126 5.33594L1.5813 5.09473L1.72778 4.90039L3.22778 2.90039L3.34497 2.74316L3.51294 2.64258L6.01294 1.14258L6.25024 1H12.3606Z" stroke="black" stroke-opacity="0.2" stroke-width="2"/>
</svg>
